<?xml version="1.0" encoding="UTF-8"?>
<svg id="Layer_2" data-name="Layer 2" xmlns="http://www.w3.org/2000/svg" viewBox="0 0 691.47 183.88">
  <defs>
    <style>
      .cls-1 {
        fill: none;
      }

      .cls-2 {
        fill: #f05225;
      }

      .cls-3 {
        fill: #1e60ad;
      }
    </style>
  </defs>
  <g id="Layer_1-2" data-name="Layer 1">
    <g>
      <g>
        <g>
          <path class="cls-3" d="M196.64,48.77l-5.27,33.51h-10.07l5.27-33.51h10.07Z"/>
          <path class="cls-3" d="M234.62,48.77l-2.47,33.51h-9.23l1.77-18.08h-.28l-6.29,15.15h-7.36l-2.1-15.15h-.23l-3.64,18.08h-9.46l7.69-33.51h10.21l2.52,20.46h.19l8.43-20.46h10.25Z"/>
          <path class="cls-3" d="M273.77,48.77l-2.47,33.51h-9.23l1.77-18.08h-.28l-6.29,15.15h-7.36l-2.1-15.15h-.23l-3.63,18.08h-9.46l7.69-33.51h10.21l2.52,20.46h.19l8.43-20.46h10.25Z"/>
          <path class="cls-3" d="M286.73,68.39c-.14,.98-.28,1.91-.28,2.75,0,1.63,.28,3.22,2.75,3.22,2.94,0,3.35-2.84,3.87-5.92l3.12-19.67h10.07l-3.45,21.72c-1.21,7.55-4.66,12.67-14.91,12.67-9.04,0-11.79-4.52-11.79-10.16,0-.89,.05-1.82,.23-2.89l3.35-21.34h10.11l-3.08,19.62Z"/>
          <path class="cls-3" d="M337.95,48.77l-5.22,33.51h-8.67l-5.83-18.03-.19,.05-2.56,17.99h-9.93l5.27-33.51h9.13l5.17,18.78,.23-.09,2.84-18.69h9.74Z"/>
          <path class="cls-3" d="M353.23,48.77l-5.27,33.51h-10.07l5.27-33.51h10.07Z"/>
          <path class="cls-3" d="M356.4,71.32c3.03,2.14,6.48,3.12,8.43,3.12,1.77,0,3.12-.61,3.12-2.1,0-1.91-2.14-2.7-4.71-3.82-3.4-1.49-7.55-3.35-7.55-9.37,0-6.99,5.69-11.28,13.05-11.28,4.85,0,8.67,1.4,11.88,3.91l-4.38,7.36c-2.33-1.72-5.41-2.84-7.27-2.84-1.12,0-2.42,.28-2.42,1.58s1.63,2.1,3.68,3.08c3.73,1.77,8.2,3.87,8.2,10.07,0,7.64-6.38,12.12-14.26,12.12-5.83,0-10.02-2.24-11.6-3.45l3.82-8.39Z"/>
          <path class="cls-3" d="M378.4,82.27l14.03-33.51h12.21l4.89,33.51h-10.21l-.79-6.48h-7.27l-2.47,6.48h-10.39Zm15-13.14h4.61l-.56-12.86h-.19l-3.87,12.86Z"/>
          <path class="cls-3" d="M410.32,48.77h27.54l-1.17,8.2h-8.76l-4.05,25.3h-10.11l4.05-25.3h-8.71l1.21-8.2Z"/>
          <path class="cls-3" d="M451.06,48.77l-5.27,33.51h-10.07l5.27-33.51h10.07Z"/>
          <path class="cls-3" d="M452.17,69.46c0-11.14,5.54-21.58,18.27-21.58,8.29,0,12.49,5.03,12.49,12.96,0,11.7-5.45,22.32-18.22,22.32-7.55,0-12.54-4.75-12.54-13.7Zm20.08-8.16c0-3.17-1.35-4.57-3.36-4.57-5.22,0-6.1,8.76-6.1,12.72,0,3.31,1.07,4.99,3.31,4.99,5.64,0,6.15-10.25,6.15-13.14Z"/>
          <path class="cls-3" d="M516.3,48.77l-5.22,33.51h-8.67l-5.83-18.03-.19,.05-2.56,17.99h-9.93l5.27-33.51h9.13l5.17,18.78,.23-.09,2.84-18.69h9.74Z"/>
          <path class="cls-3" d="M527.11,48.77h22.97l-1.26,8.2h-12.91l-.75,4.52h11.23l-1.21,7.83h-11.23l-.75,4.75h13.37l-1.26,8.2h-23.49l5.27-33.51Z"/>
          <path class="cls-3" d="M560.2,83.07c-6.48-.75-10.62-5.41-10.62-13.61,0-11.14,5.55-21.58,18.27-21.58,8.29,0,12.49,5.03,12.49,12.96,0,9.13-3.31,17.57-10.81,20.88,.7,2.33,3.21,4.33,8.48,4.29l-2.19,7.22c-9.09,.19-13.98-4.61-15.61-10.16Zm9.46-21.76c0-3.17-1.35-4.57-3.36-4.57-5.22,0-6.1,8.76-6.1,12.72,0,3.31,1.07,4.99,3.31,4.99,5.64,0,6.15-10.25,6.15-13.14Z"/>
          <path class="cls-3" d="M592.83,68.39c-.14,.98-.28,1.91-.28,2.75,0,1.63,.28,3.22,2.75,3.22,2.94,0,3.36-2.84,3.87-5.92l3.12-19.67h10.07l-3.45,21.72c-1.21,7.55-4.66,12.67-14.91,12.67-9.04,0-11.79-4.52-11.79-10.16,0-.89,.05-1.82,.23-2.89l3.35-21.34h10.11l-3.08,19.62Z"/>
          <path class="cls-3" d="M626.99,48.77l-5.27,33.51h-10.07l5.27-33.51h10.07Z"/>
          <path class="cls-3" d="M630.2,48.77h27.54l-1.16,8.2h-8.76l-4.05,25.3h-10.11l4.05-25.3h-8.71l1.21-8.2Z"/>
          <path class="cls-3" d="M679.79,48.77h11l-14.73,21.44-1.86,12.07h-10.07l2-12.63-7.97-20.88h10.16l3.73,12.12h.33l7.41-12.12Z"/>
          <path class="cls-3" d="M194.64,109.25l-4.01,25.21h-9.83l4.01-25.21h9.83Zm-3.12-11.93c2.89,0,4.71,1.72,4.71,4.43,0,3.26-2.33,5.92-6.15,5.92-2.94,0-4.75-1.77-4.75-4.66,0-3.45,2.52-5.69,6.2-5.69Z"/>
          <path class="cls-3" d="M220.36,114.61c0,.93-.14,2.28-.28,3.17l-2.66,16.68h-9.83l2.38-15.05c.05-.33,.19-1.12,.19-1.54,0-.93-.61-1.07-1.12-1.07-.75,0-1.4,.14-1.86,.28l-2.7,17.38h-9.93l4.01-25.21h8.29l.19,1.86c1.63-1.03,3.96-2.28,7.36-2.28,4.52,0,5.96,2.38,5.96,5.78Z"/>
          <path class="cls-3" d="M227.45,134.46l5.27-33.51h12.96c6.66,0,9.83,2.98,9.83,7.41,0,3.87-2.19,6.15-4.8,8.16,2.7,1.49,4.52,3.68,4.52,6.8,0,7.97-6.8,10.86-14.35,11.14h-13.42Zm12.3-13.98l-1.17,7.22h2.33c2.1,0,3.73-2,3.73-4.1,0-1.82-1.17-3.12-2.94-3.12h-1.96Zm1.91-12.35l-.84,5.78h2.52c1.35-1.12,2-2.24,2-3.59s-.7-2.19-2.1-2.19h-1.58Z"/>
          <path class="cls-3" d="M254.9,134.46l14.03-33.51h12.21l4.89,33.51h-10.21l-.79-6.48h-7.27l-2.47,6.48h-10.39Zm15.01-13.14h4.61l-.56-12.86h-.19l-3.87,12.86Z"/>
          <path class="cls-3" d="M320.61,100.96l-5.22,33.51h-8.67l-5.83-18.03-.19,.05-2.56,17.99h-9.93l5.27-33.51h9.13l5.17,18.78,.23-.09,2.84-18.69h9.74Z"/>
          <path class="cls-3" d="M337.01,116.15h13.28l-2.66,16.92c-3.63,1.58-8.39,2.28-12.35,2.28-10.25,0-13.42-6.71-13.42-15.05,0-9.6,5.5-20.22,17.38-20.22,8.44,0,11.14,5.08,11.6,10.16l-9.37,2.19c-.47-2.38-1.49-3.5-3.5-3.5-4.29,0-5.64,6.48-5.64,11,0,4.1,.7,7.27,4.33,7.27,.7,0,1.07,0,1.86-.14l.65-4.01h-3.26l1.07-6.9Z"/>
          <path class="cls-3" d="M357.1,100.96h10.07l-4.01,25.26h12.91l-1.26,8.25h-22.97l5.27-33.51Z"/>
          <path class="cls-3" d="M376.12,134.46l14.03-33.51h12.21l4.89,33.51h-10.21l-.79-6.48h-7.27l-2.47,6.48h-10.39Zm15-13.14h4.61l-.56-12.86h-.19l-3.87,12.86Z"/>
          <path class="cls-3" d="M414.7,100.96h12.07c7.36,0,13,3.12,13,12.63,0,14.26-8.48,20.88-16.78,20.88h-13.56l5.27-33.51Zm6.11,25.86h1.26c4.15,0,7.04-4.71,7.04-12.4,0-4.71-1.82-5.64-4.38-5.64h-1.12l-2.8,18.03Z"/>
          <path class="cls-3" d="M445.88,100.96h22.97l-1.26,8.2h-12.91l-.75,4.52h11.23l-1.21,7.83h-11.23l-.75,4.75h13.38l-1.26,8.2h-23.49l5.27-33.51Z"/>
          <path class="cls-3" d="M471.33,123.51c3.03,2.14,6.48,3.12,8.43,3.12,1.77,0,3.12-.61,3.12-2.1,0-1.91-2.14-2.7-4.71-3.82-3.4-1.49-7.55-3.36-7.55-9.37,0-6.99,5.69-11.28,13.05-11.28,4.85,0,8.67,1.4,11.88,3.92l-4.38,7.36c-2.33-1.72-5.41-2.84-7.27-2.84-1.12,0-2.42,.28-2.42,1.58s1.63,2.1,3.68,3.08c3.73,1.77,8.2,3.87,8.2,10.07,0,7.64-6.38,12.12-14.26,12.12-5.83,0-10.02-2.24-11.6-3.45l3.82-8.39Z"/>
          <path class="cls-3" d="M528.7,100.96l-5.27,33.51h-10.11l2-12.54h-7.64l-2,12.54h-10.07l5.27-33.51h10.07l-2,12.54h7.6l2.05-12.54h10.11Z"/>
        </g>
        <g>
          <path class="cls-3" d="M202.34,6.28c1.73,1.33,2.9,3.14,3.51,5.41h-3.66c-.5-1.29-1.31-2.31-2.4-3.07-1.1-.76-2.45-1.13-4.04-1.13-1.27,0-2.4,.31-3.4,.94s-1.78,1.52-2.36,2.68c-.57,1.16-.86,2.52-.86,4.07s.29,2.88,.86,4.04c.57,1.16,1.36,2.05,2.36,2.68s2.13,.94,3.4,.94c1.59,0,2.94-.38,4.04-1.13,1.1-.76,1.9-1.77,2.4-3.04h3.66c-.6,2.28-1.77,4.08-3.51,5.4-1.73,1.32-3.91,1.98-6.53,1.98-2.02,0-3.8-.46-5.35-1.38-1.55-.92-2.75-2.2-3.6-3.84-.85-1.64-1.27-3.52-1.27-5.64s.42-4,1.27-5.64c.85-1.64,2.05-2.93,3.6-3.86,1.55-.93,3.34-1.39,5.35-1.39,2.62,0,4.8,.67,6.53,2Z"/>
          <path class="cls-3" d="M226.37,5.61c1.6,.93,2.86,2.22,3.78,3.89,.92,1.66,1.38,3.54,1.38,5.64s-.46,3.98-1.38,5.64-2.18,2.96-3.78,3.9c-1.6,.94-3.39,1.41-5.37,1.41s-3.8-.47-5.4-1.41c-1.6-.94-2.87-2.24-3.8-3.9s-1.39-3.54-1.39-5.64,.46-3.98,1.39-5.64c.93-1.66,2.19-2.96,3.8-3.89,1.6-.93,3.4-1.39,5.4-1.39s3.77,.46,5.37,1.39Zm-9.03,2.75c-1.07,.62-1.9,1.52-2.5,2.69-.59,1.17-.89,2.53-.89,4.08s.3,2.91,.89,4.08c.59,1.17,1.43,2.07,2.5,2.69,1.07,.62,2.29,.94,3.66,.94s2.56-.31,3.61-.94,1.88-1.52,2.48-2.69c.59-1.17,.89-2.53,.89-4.08s-.3-2.91-.89-4.08c-.59-1.17-1.42-2.07-2.48-2.69s-2.26-.94-3.61-.94-2.59,.31-3.66,.94Z"/>
          <path class="cls-3" d="M240.12,4.5v12.67c0,1.9,.42,3.31,1.26,4.23,.84,.93,2.01,1.39,3.52,1.39s2.66-.46,3.49-1.39c.84-.93,1.25-2.34,1.25-4.23V4.5h3.45v12.67c0,2.92-.76,5.14-2.27,6.64-1.51,1.5-3.51,2.25-5.99,2.25s-4.44-.75-5.93-2.25c-1.49-1.5-2.24-3.71-2.24-6.64V4.5h3.45Z"/>
          <path class="cls-3" d="M276.2,25.85h-3.45l-10.37-15.76v15.76h-3.45V4.53h3.45l10.37,15.82V4.53h3.45V25.85Z"/>
          <path class="cls-3" d="M295.91,4.5v2.78h-5.96V25.85h-3.48V7.28h-5.93v-2.78h15.36Z"/>
          <path class="cls-3" d="M311.52,25.85l-5.32-8.53h-2.45v8.53h-3.45V4.5h7.53c2.44,0,4.29,.59,5.55,1.78,1.26,1.19,1.89,2.76,1.89,4.72,0,1.67-.47,3.04-1.41,4.11-.94,1.07-2.29,1.75-4.07,2.06l5.6,8.68h-3.87Zm-7.77-10.98h3.81c2.78,0,4.17-1.23,4.17-3.69,0-1.17-.34-2.08-1.01-2.74-.68-.65-1.73-.98-3.16-.98h-3.81v7.41Z"/>
          <path class="cls-3" d="M336.32,4.5l-7.11,13.58v7.77h-3.48v-7.77l-7.14-13.58h3.99l4.9,9.89,4.9-9.89h3.93Z"/>
          <path class="cls-3" d="M353.04,23.15h7.38v2.69h-10.83V4.5h3.45V23.15Z"/>
          <path class="cls-3" d="M368.38,7.28v6.47h7.86v2.66h-7.86v6.62h8.77v2.81h-12.22V4.5h12.22v2.78h-8.77Z"/>
          <path class="cls-3" d="M395.05,21.22h-9.01l-1.63,4.63h-3.69l7.86-21.02h3.96l7.83,21.02h-3.69l-1.63-4.63Zm-.97-2.66l-3.54-9.98-3.54,9.98h7.08Z"/>
          <path class="cls-3" d="M415.98,25.85l-5.32-8.53h-2.45v8.53h-3.45V4.5h7.53c2.44,0,4.29,.59,5.55,1.78,1.26,1.19,1.89,2.76,1.89,4.72,0,1.67-.47,3.04-1.41,4.11-.94,1.07-2.29,1.75-4.07,2.06l5.59,8.68h-3.87Zm-7.77-10.98h3.81c2.78,0,4.17-1.23,4.17-3.69,0-1.17-.34-2.08-1.01-2.74-.68-.65-1.73-.98-3.16-.98h-3.81v7.41Z"/>
          <path class="cls-3" d="M441.93,25.85h-3.45l-10.37-15.76v15.76h-3.45V4.53h3.45l10.37,15.82V4.53h3.45V25.85Z"/>
          <path class="cls-3" d="M451.36,4.5V25.85h-3.45V4.5h3.45Z"/>
          <path class="cls-3" d="M474.62,25.85h-3.45l-10.37-15.76v15.76h-3.45V4.53h3.45l10.37,15.82V4.53h3.45V25.85Z"/>
          <path class="cls-3" d="M496.73,6.19c1.69,1.25,2.81,2.95,3.36,5.11h-3.63c-.46-1.15-1.22-2.07-2.28-2.75-1.06-.69-2.31-1.03-3.77-1.03-1.33,0-2.53,.31-3.58,.94s-1.88,1.51-2.48,2.66-.89,2.5-.89,4.05c0,1.63,.3,3.03,.91,4.2,.61,1.17,1.46,2.06,2.56,2.68,1.1,.62,2.37,.92,3.83,.92,1.77,0,3.3-.55,4.57-1.65,1.27-1.1,2.04-2.61,2.3-4.52h-7.83v-2.54h10.74v3.3c-.24,1.57-.8,3-1.68,4.28-.88,1.28-2.04,2.3-3.48,3.07-1.44,.77-3.09,1.15-4.95,1.15-2.08,0-3.91-.46-5.5-1.39-1.59-.93-2.82-2.21-3.69-3.86-.87-1.64-1.3-3.52-1.3-5.64s.43-4,1.3-5.64c.87-1.64,2.09-2.92,3.67-3.84,1.58-.92,3.41-1.38,5.49-1.38,2.54,0,4.66,.62,6.35,1.88Z"/>
          <path class="cls-3" d="M531.66,4.5V25.85h-3.48v-9.59h-10.04v9.59h-3.45V4.5h3.45V13.45h10.04V4.5h3.48Z"/>
          <path class="cls-3" d="M540.94,4.5v12.67c0,1.9,.42,3.31,1.26,4.23,.84,.93,2.01,1.39,3.52,1.39s2.66-.46,3.49-1.39c.84-.93,1.26-2.34,1.26-4.23V4.5h3.45v12.67c0,2.92-.76,5.14-2.27,6.64-1.51,1.5-3.51,2.25-5.99,2.25s-4.44-.75-5.93-2.25c-1.49-1.5-2.24-3.71-2.24-6.64V4.5h3.45Z"/>
          <path class="cls-3" d="M574.01,16.68c.8,.97,1.2,2.1,1.2,3.39,0,1.77-.6,3.18-1.79,4.22-1.19,1.04-2.91,1.56-5.17,1.56h-8.5V4.5h8.35c2.14,0,3.78,.48,4.91,1.44s1.71,2.27,1.71,3.95c0,1.35-.35,2.45-1.06,3.28-.71,.84-1.63,1.4-2.78,1.68,1.29,.26,2.33,.88,3.13,1.84Zm-10.81-2.99h4.26c1.21,0,2.13-.28,2.77-.85,.64-.56,.95-1.35,.95-2.36s-.32-1.76-.95-2.33c-.63-.56-1.6-.85-2.89-.85h-4.14v6.38Zm7.39,8.42c.72-.59,1.07-1.43,1.07-2.5s-.36-1.91-1.09-2.51c-.73-.6-1.74-.91-3.05-.91h-4.33v6.8h4.35c1.31,0,2.32-.3,3.04-.89Z"/>
        </g>
        <g>
          <path class="cls-2" d="M6.38,176.82h6.25v3.9H.97v-3.68l6.16-8.03H.97v-3.87H12.63v3.68l-6.25,8.01Z"/>
          <path class="cls-2" d="M21.04,169v1.94h4.84v3.68h-4.84v2.2h5.5v3.9h-10.39v-15.58h10.39v3.87h-5.5Z"/>
          <path class="cls-2" d="M37.55,180.71l-2.95-5.59v5.59h-4.89v-15.58h7.26c1.26,0,2.34,.22,3.24,.67s1.57,1.06,2.01,1.83c.45,.77,.67,1.64,.67,2.61,0,1.04-.29,1.97-.87,2.77-.58,.81-1.41,1.39-2.5,1.74l3.39,5.96h-5.37Zm-2.95-8.85h1.94c.47,0,.82-.11,1.06-.32,.23-.21,.35-.55,.35-1,0-.41-.12-.73-.36-.97-.24-.23-.59-.35-1.05-.35h-1.94v2.64Z"/>
          <path class="cls-2" d="M57.4,165.89c1.22,.68,2.18,1.63,2.89,2.85s1.07,2.59,1.07,4.12-.36,2.9-1.07,4.12c-.71,1.22-1.68,2.17-2.91,2.86-1.23,.69-2.56,1.03-4.02,1.03s-2.81-.34-4.04-1.03c-1.23-.69-2.2-1.64-2.92-2.86-.72-1.22-1.08-2.59-1.08-4.12s.36-2.9,1.08-4.12c.72-1.22,1.69-2.17,2.92-2.85,1.22-.68,2.57-1.02,4.04-1.02s2.81,.34,4.03,1.02Zm-6.3,4.42c-.53,.62-.79,1.47-.79,2.54s.26,1.9,.79,2.52c.53,.62,1.28,.94,2.27,.94s1.72-.31,2.25-.94c.53-.62,.79-1.46,.79-2.52s-.26-1.92-.79-2.54c-.53-.62-1.28-.94-2.25-.94s-1.74,.31-2.27,.94Z"/>
          <path class="cls-2" d="M83.11,176.88c-.66,1.19-1.6,2.12-2.83,2.81-1.23,.68-2.65,1.02-4.28,1.02h-6.49v-15.58h6.49c1.63,0,3.06,.33,4.28,.99,1.22,.66,2.17,1.58,2.83,2.75s.99,2.51,.99,4.01-.33,2.82-.99,4.01Zm-4.93-1.43c.65-.6,.97-1.46,.97-2.58s-.32-1.97-.97-2.58-1.52-.9-2.62-.9h-1.17v6.96h1.17c1.1,0,1.97-.3,2.62-.9Z"/>
          <path class="cls-2" d="M98.81,165.89c1.22,.68,2.18,1.63,2.89,2.85s1.07,2.59,1.07,4.12-.36,2.9-1.07,4.12c-.71,1.22-1.68,2.17-2.91,2.86-1.23,.69-2.56,1.03-4.02,1.03s-2.81-.34-4.04-1.03c-1.23-.69-2.2-1.64-2.92-2.86-.72-1.22-1.08-2.59-1.08-4.12s.36-2.9,1.08-4.12c.72-1.22,1.69-2.17,2.92-2.85,1.22-.68,2.57-1.02,4.04-1.02s2.81,.34,4.03,1.02Zm-6.3,4.42c-.53,.62-.79,1.47-.79,2.54s.26,1.9,.79,2.52c.53,.62,1.28,.94,2.27,.94s1.72-.31,2.25-.94c.53-.62,.79-1.46,.79-2.52s-.26-1.92-.79-2.54c-.53-.62-1.28-.94-2.25-.94s-1.74,.31-2.27,.94Z"/>
          <path class="cls-2" d="M117.2,178.53c-.46,.72-1.13,1.29-2.01,1.71-.88,.42-1.93,.63-3.15,.63-1.86,0-3.4-.44-4.61-1.31s-1.87-2.15-1.97-3.84h5.19c.07,.89,.47,1.34,1.19,1.34,.25,0,.45-.07,.6-.2s.23-.32,.23-.57c0-.37-.19-.66-.56-.87-.37-.21-.98-.46-1.82-.74-.98-.32-1.8-.65-2.45-.99-.65-.34-1.22-.84-1.71-1.5-.48-.66-.73-1.52-.73-2.58s.26-1.87,.78-2.59c.52-.71,1.23-1.25,2.14-1.62,.9-.37,1.92-.55,3.05-.55,1.86,0,3.35,.43,4.45,1.3s1.7,2.11,1.81,3.74h-5.26c-.07-.82-.41-1.23-1.01-1.23-.21,0-.37,.06-.51,.19-.13,.12-.2,.31-.2,.56,0,.34,.19,.61,.56,.83,.37,.21,.96,.46,1.75,.74,1,.35,1.82,.7,2.48,1.04,.65,.35,1.22,.85,1.72,1.52,.49,.67,.74,1.52,.74,2.56,0,.9-.23,1.7-.69,2.42Z"/>
          <path class="cls-2" d="M125.81,169v1.94h4.84v3.68h-4.84v2.2h5.5v3.9h-10.39v-15.58h10.39v3.87h-5.5Z"/>
          <path class="cls-2" d="M148.84,183.88h-4.89v-21.39h4.89v21.39Z"/>
          <path class="cls-2" d="M166.6,165.13v8.78c0,.72,.16,1.29,.47,1.71,.32,.42,.83,.63,1.53,.63s1.23-.21,1.56-.63c.34-.42,.51-.99,.51-1.71v-8.78h4.86v8.78c0,1.48-.31,2.75-.92,3.8-.62,1.05-1.46,1.84-2.53,2.37-1.07,.53-2.27,.79-3.59,.79s-2.49-.26-3.51-.79c-1.02-.53-1.82-1.31-2.39-2.36s-.86-2.31-.86-3.81v-8.78h4.86Z"/>
          <path class="cls-2" d="M193.92,180.71h-4.89l-5.17-7.84v7.84h-4.89v-15.58h4.89l5.17,7.97v-7.97h4.89v15.58Z"/>
          <path class="cls-2" d="M211.04,176.88c-.66,1.19-1.6,2.12-2.83,2.81-1.23,.68-2.65,1.02-4.28,1.02h-6.49v-15.58h6.49c1.63,0,3.06,.33,4.28,.99,1.23,.66,2.17,1.58,2.83,2.75,.66,1.17,.99,2.51,.99,4.01s-.33,2.82-.99,4.01Zm-4.93-1.43c.65-.6,.97-1.46,.97-2.58s-.32-1.97-.97-2.58c-.65-.6-1.52-.9-2.62-.9h-1.17v6.96h1.17c1.1,0,1.97-.3,2.62-.9Z"/>
          <path class="cls-2" d="M220,169v1.94h4.84v3.68h-4.84v2.2h5.5v3.9h-10.39v-15.58h10.39v3.87h-5.5Z"/>
          <path class="cls-2" d="M236.51,180.71l-2.95-5.59v5.59h-4.89v-15.58h7.26c1.26,0,2.34,.22,3.24,.67s1.57,1.06,2.01,1.83c.45,.77,.67,1.64,.67,2.61,0,1.04-.29,1.97-.87,2.77-.58,.81-1.41,1.39-2.5,1.74l3.39,5.96h-5.37Zm-2.95-8.85h1.94c.47,0,.82-.11,1.06-.32,.23-.21,.35-.55,.35-1,0-.41-.12-.73-.36-.97-.24-.23-.59-.35-1.05-.35h-1.94v2.64Z"/>
          <path class="cls-2" d="M254.69,165.13v15.58h-4.89v-15.58h4.89Z"/>
          <path class="cls-2" d="M276.94,165.13v15.58h-4.86v-7.77l-2.4,7.77h-4.18l-2.4-7.77v7.77h-4.89v-15.58h5.99l3.43,9.35,3.35-9.35h5.96Z"/>
          <path class="cls-2" d="M299.19,165.13v15.58h-4.86v-7.77l-2.4,7.77h-4.18l-2.4-7.77v7.77h-4.89v-15.58h5.99l3.43,9.35,3.35-9.35h5.96Z"/>
          <path class="cls-2" d="M307.49,165.13v8.78c0,.72,.16,1.29,.47,1.71,.32,.42,.83,.63,1.53,.63s1.23-.21,1.56-.63c.34-.42,.51-.99,.51-1.71v-8.78h4.86v8.78c0,1.48-.31,2.75-.92,3.8-.62,1.05-1.46,1.84-2.53,2.37-1.07,.53-2.27,.79-3.59,.79s-2.49-.26-3.51-.79c-1.02-.53-1.82-1.31-2.39-2.36s-.86-2.31-.86-3.81v-8.78h4.86Z"/>
          <path class="cls-2" d="M334.81,180.71h-4.89l-5.17-7.84v7.84h-4.89v-15.58h4.89l5.17,7.97v-7.97h4.89v15.58Z"/>
          <path class="cls-2" d="M343.22,165.13v15.58h-4.89v-15.58h4.89Z"/>
          <path class="cls-2" d="M358.08,178.53c-.46,.72-1.13,1.29-2.01,1.71-.88,.42-1.93,.63-3.15,.63-1.86,0-3.4-.44-4.61-1.31s-1.87-2.15-1.97-3.84h5.19c.07,.89,.47,1.34,1.19,1.34,.25,0,.45-.07,.61-.2s.23-.32,.23-.57c0-.37-.19-.66-.56-.87-.37-.21-.98-.46-1.82-.74-.98-.32-1.8-.65-2.45-.99-.65-.34-1.22-.84-1.71-1.5-.48-.66-.73-1.52-.73-2.58s.26-1.87,.78-2.59c.52-.71,1.23-1.25,2.13-1.62,.9-.37,1.92-.55,3.05-.55,1.86,0,3.35,.43,4.45,1.3s1.7,2.11,1.8,3.74h-5.26c-.07-.82-.41-1.23-1.01-1.23-.21,0-.37,.06-.51,.19s-.2,.31-.2,.56c0,.34,.19,.61,.56,.83,.37,.21,.96,.46,1.75,.74,1,.35,1.82,.7,2.48,1.04,.65,.35,1.23,.85,1.72,1.52,.49,.67,.74,1.52,.74,2.56,0,.9-.23,1.7-.69,2.42Z"/>
          <path class="cls-2" d="M366.7,169v1.94h4.84v3.68h-4.84v2.2h5.5v3.9h-10.39v-15.58h10.39v3.87h-5.5Z"/>
          <path class="cls-2" d="M388.98,176.88c-.66,1.19-1.6,2.12-2.83,2.81-1.23,.68-2.65,1.02-4.28,1.02h-6.49v-15.58h6.49c1.63,0,3.06,.33,4.28,.99,1.22,.66,2.17,1.58,2.83,2.75s.99,2.51,.99,4.01-.33,2.82-.99,4.01Zm-4.93-1.43c.64-.6,.97-1.46,.97-2.58s-.32-1.97-.97-2.58c-.65-.6-1.52-.9-2.62-.9h-1.17v6.96h1.17c1.1,0,1.97-.3,2.62-.9Z"/>
          <path class="cls-2" d="M407.4,183.88h-4.89v-21.39h4.89v21.39Z"/>
          <path class="cls-2" d="M439.12,165.13v15.58h-4.86v-7.77l-2.4,7.77h-4.18l-2.4-7.77v7.77h-4.89v-15.58h5.99l3.43,9.35,3.35-9.35h5.96Z"/>
          <path class="cls-2" d="M447.52,165.13v15.58h-4.89v-15.58h4.89Z"/>
          <path class="cls-2" d="M462.39,178.53c-.46,.72-1.13,1.29-2.01,1.71-.88,.42-1.93,.63-3.15,.63-1.86,0-3.4-.44-4.61-1.31s-1.87-2.15-1.97-3.84h5.2c.07,.89,.47,1.34,1.19,1.34,.25,0,.45-.07,.61-.2,.15-.13,.23-.32,.23-.57,0-.37-.19-.66-.56-.87-.37-.21-.98-.46-1.82-.74-.98-.32-1.8-.65-2.45-.99-.65-.34-1.22-.84-1.71-1.5-.48-.66-.73-1.52-.73-2.58s.26-1.87,.78-2.59c.52-.71,1.23-1.25,2.13-1.62,.9-.37,1.92-.55,3.05-.55,1.86,0,3.35,.43,4.45,1.3,1.1,.87,1.7,2.11,1.81,3.74h-5.26c-.07-.82-.41-1.23-1.01-1.23-.21,0-.37,.06-.51,.19-.13,.12-.2,.31-.2,.56,0,.34,.19,.61,.56,.83,.38,.21,.96,.46,1.75,.74,1,.35,1.82,.7,2.48,1.04,.65,.35,1.22,.85,1.72,1.52,.49,.67,.74,1.52,.74,2.56,0,.9-.23,1.7-.69,2.42Z"/>
          <path class="cls-2" d="M477.47,178.53c-.46,.72-1.13,1.29-2.01,1.71-.88,.42-1.93,.63-3.15,.63-1.86,0-3.4-.44-4.61-1.31s-1.87-2.15-1.97-3.84h5.19c.07,.89,.47,1.34,1.19,1.34,.25,0,.45-.07,.61-.2s.23-.32,.23-.57c0-.37-.19-.66-.56-.87-.37-.21-.98-.46-1.82-.74-.98-.32-1.8-.65-2.45-.99-.65-.34-1.22-.84-1.71-1.5-.48-.66-.73-1.52-.73-2.58s.26-1.87,.78-2.59c.52-.71,1.23-1.25,2.13-1.62,.9-.37,1.92-.55,3.05-.55,1.86,0,3.35,.43,4.45,1.3s1.7,2.11,1.8,3.74h-5.26c-.07-.82-.41-1.23-1.01-1.23-.21,0-.37,.06-.51,.19s-.2,.31-.2,.56c0,.34,.19,.61,.56,.83,.37,.21,.96,.46,1.75,.74,1,.35,1.82,.7,2.48,1.04,.65,.35,1.23,.85,1.72,1.52,.49,.67,.74,1.52,.74,2.56,0,.9-.23,1.7-.69,2.42Z"/>
          <path class="cls-2" d="M486.09,169v1.94h4.84v3.68h-4.84v2.2h5.5v3.9h-10.39v-15.58h10.39v3.87h-5.5Z"/>
          <path class="cls-2" d="M508.36,176.88c-.66,1.19-1.6,2.12-2.83,2.81-1.23,.68-2.65,1.02-4.28,1.02h-6.49v-15.58h6.49c1.63,0,3.06,.33,4.28,.99,1.22,.66,2.17,1.58,2.83,2.75s.99,2.51,.99,4.01-.33,2.82-.99,4.01Zm-4.93-1.43c.64-.6,.97-1.46,.97-2.58s-.32-1.97-.97-2.58c-.65-.6-1.52-.9-2.62-.9h-1.17v6.96h1.17c1.1,0,1.97-.3,2.62-.9Z"/>
          <path class="cls-2" d="M528.38,165.73c1.06,.51,1.93,1.22,2.6,2.15,.67,.92,1.11,2,1.33,3.24h-5.15c-.24-.51-.57-.91-1-1.2s-.93-.43-1.49-.43c-.82,0-1.47,.31-1.95,.92-.48,.62-.72,1.45-.72,2.49s.24,1.87,.72,2.49c.48,.62,1.13,.92,1.95,.92,.56,0,1.05-.14,1.49-.43s.77-.69,1-1.2h5.15c-.22,1.23-.66,2.31-1.33,3.24-.67,.92-1.53,1.64-2.6,2.15-1.06,.51-2.27,.76-3.62,.76-1.57,0-2.94-.33-4.09-1-1.16-.67-2.05-1.6-2.67-2.81-.62-1.2-.94-2.58-.94-4.12s.31-2.91,.94-4.12,1.51-2.14,2.67-2.81c1.16-.67,2.52-1,4.09-1,1.35,0,2.56,.25,3.62,.76Z"/>
          <path class="cls-2" d="M547.01,165.89c1.22,.68,2.18,1.63,2.89,2.85s1.07,2.59,1.07,4.12-.36,2.9-1.07,4.12c-.71,1.22-1.68,2.17-2.91,2.86-1.23,.69-2.56,1.03-4.02,1.03s-2.81-.34-4.04-1.03c-1.22-.69-2.2-1.64-2.92-2.86-.72-1.22-1.08-2.59-1.08-4.12s.36-2.9,1.08-4.12,1.69-2.17,2.92-2.85c1.23-.68,2.57-1.02,4.04-1.02s2.81,.34,4.03,1.02Zm-6.29,4.42c-.53,.62-.79,1.47-.79,2.54s.26,1.9,.79,2.52c.53,.62,1.28,.94,2.27,.94s1.72-.31,2.25-.94c.53-.62,.79-1.46,.79-2.52s-.26-1.92-.79-2.54c-.53-.62-1.28-.94-2.25-.94s-1.74,.31-2.27,.94Z"/>
          <path class="cls-2" d="M572.79,165.13v15.58h-4.86v-7.77l-2.4,7.77h-4.18l-2.4-7.77v7.77h-4.89v-15.58h5.99l3.43,9.35,3.35-9.35h5.96Z"/>
          <path class="cls-2" d="M595.04,165.13v15.58h-4.86v-7.77l-2.4,7.77h-4.18l-2.4-7.77v7.77h-4.89v-15.58h5.99l3.43,9.35,3.35-9.35h5.96Z"/>
          <path class="cls-2" d="M603.34,165.13v8.78c0,.72,.16,1.29,.47,1.71,.32,.42,.83,.63,1.53,.63s1.23-.21,1.56-.63c.34-.42,.51-.99,.51-1.71v-8.78h4.86v8.78c0,1.48-.31,2.75-.92,3.8-.62,1.05-1.46,1.84-2.53,2.37-1.07,.53-2.27,.79-3.59,.79s-2.49-.26-3.51-.79c-1.02-.53-1.82-1.31-2.39-2.36s-.86-2.31-.86-3.81v-8.78h4.86Z"/>
          <path class="cls-2" d="M630.65,180.71h-4.89l-5.17-7.84v7.84h-4.89v-15.58h4.89l5.17,7.97v-7.97h4.89v15.58Z"/>
          <path class="cls-2" d="M639.06,165.13v15.58h-4.89v-15.58h4.89Z"/>
          <path class="cls-2" d="M654.82,165.13v3.87h-4.14v11.71h-4.89v-11.71h-4.09v-3.87h13.12Z"/>
          <path class="cls-2" d="M662.35,165.13v15.58h-4.89v-15.58h4.89Z"/>
          <path class="cls-2" d="M670.76,169v1.94h4.84v3.68h-4.84v2.2h5.5v3.9h-10.39v-15.58h10.39v3.87h-5.5Z"/>
          <path class="cls-2" d="M690.78,178.53c-.46,.72-1.13,1.29-2.01,1.71-.88,.42-1.93,.63-3.15,.63-1.86,0-3.4-.44-4.61-1.31s-1.87-2.15-1.97-3.84h5.19c.07,.89,.47,1.34,1.19,1.34,.25,0,.45-.07,.61-.2s.23-.32,.23-.57c0-.37-.19-.66-.56-.87-.37-.21-.98-.46-1.82-.74-.98-.32-1.8-.65-2.45-.99-.65-.34-1.22-.84-1.71-1.5-.48-.66-.73-1.52-.73-2.58s.26-1.87,.78-2.59c.52-.71,1.23-1.25,2.13-1.62,.9-.37,1.92-.55,3.05-.55,1.86,0,3.35,.43,4.45,1.3s1.7,2.11,1.8,3.74h-5.26c-.07-.82-.41-1.23-1.01-1.23-.21,0-.37,.06-.51,.19s-.2,.31-.2,.56c0,.34,.19,.61,.56,.83,.37,.21,.96,.46,1.75,.74,1,.35,1.82,.7,2.48,1.04,.65,.35,1.23,.85,1.72,1.52,.49,.67,.74,1.52,.74,2.56,0,.9-.23,1.7-.69,2.42Z"/>
        </g>
      </g>
      <g>
        <path class="cls-1" d="M24.11,65.32l.04-.12c-.04,.08-.05,.13-.04,.12Z"/>
        <path class="cls-1" d="M21.12,67.32c.05-.05,.08-.06,.09-.08,.27-.85,.54-1.7,.81-2.56,.04-.12,.04-.24,0-.36-.21-.52-.42-1.03-.69-1.51-.11-.21-.22-.2-.35,.02-.16,.27-.26,.56-.37,.86-.26,.75-.45,1.53-.81,2.25-.08,.16-.07,.27,.09,.38,.45,.28,.84,.63,1.24,1.01Z"/>
        <path class="cls-3" d="M139.52,72.57c0,36.97-29.97,66.94-66.94,66.94S5.63,109.55,5.63,72.57,35.6,5.63,72.57,5.63c28.47,0,52.77,17.78,62.45,42.83l5.22-2.06C129.72,19.28,103.36,0,72.57,0,32.56,0,0,32.56,0,72.57s32.56,72.57,72.57,72.57,72.57-32.56,72.57-72.57c0-2.47-.13-4.9-.37-7.3l-5.48,2.16c.13,1.7,.22,3.41,.22,5.15Z"/>
        <path class="cls-2" d="M72.54,75.6c.09,.17,.19,.33,.34,.45,.38,.32,.9,.3,1.25-.06,.3-.31,.37-.69,.17-1.12-.24-.53-.51-1.04-.75-1.58-1.08-2.46-1.71-5.01-1.78-7.7-.06-2.06,.14-4.09,.69-6.07,.38-1.38,1.27-2.38,2.59-2.94,1.14-.49,2.36-.6,3.57-.69,2.41-.18,4.63,.53,6.73,1.64,1.15,.61,2.18,1.42,3.27,2.12,1.26,.81,2.56,1.53,4.02,1.91,.87,.23,1.74,.42,2.64,.39,1.15-.04,2.08-.49,2.68-1.5,.62-1.04,.98-1.84,.99-3.06,0-.33,.15-1.09,.2-1.48,.03-.22,.17-1.01,1.07-.94,.31,.02,.47,.56,.47,1.3,0,.13,.01,.27,.01,.41,0,1.08,0,2.17,0,3.25,0,.22,0,.43,.08,.64,.13,.36,.43,.58,.8,.58,.39,0,.7-.22,.83-.6,.07-.19,.08-.4,.08-.6,0-.81,0-1.62,0-2.44,0-.36,.01-2.52-.06-3.18-.09-.77-.56-1.45-1.27-1.72-.18-.07-.36-.12-.54-.18h-.73c-.16,.05-.31,.09-.47,.13-.81,.22-1.41,.73-1.83,1.45-.19,.32-.3,.66-.4,1.02-.19,.68-.15,1.37-.17,2.06-.02,.81-.26,1.57-.63,2.29-.19,.37-.52,.57-.95,.61-.44,.04-.87,0-1.29-.06-1.37-.22-2.62-.75-3.81-1.46-.89-.54-1.75-1.13-2.61-1.72-1.4-.97-2.93-1.69-4.56-2.19-1.28-.39-2.57-.64-3.91-.62-1.33,.03-2.64,.21-3.94,.52-1.28,.31-2.4,.93-3.26,1.94-.6,.7-1.14,1.45-1.39,2.36-.74,2.77-1.03,5.58-.72,8.44,.33,2.96,1.22,5.73,2.58,8.37Z"/>
        <path class="cls-2" d="M49.03,70.05h-.02c-1.86,.05-2.52,1.45-2.62,2.18-.04,.33,.19,.63,.52,.67,.03,0,.05,0,.08,0,.3,0,.56-.22,.6-.53,0-.04,.15-1.08,1.45-1.12,.33,0,.6-.29,.59-.62,0-.33-.28-.59-.6-.59Z"/>
        <path class="cls-2" d="M24.11,65.32s0,0,0,0l-.98,2.9c.92-1.55,2.55-2.53,3.06-3.02,2.1-1.59,3.61-2.41,5.87-3.46,.59-.27,1.17-.56,1.81-.73,1.84-.51,3.7-.75,5.62-.59,2.1,.18,4.01,.81,5.7,2.11,1.5,1.16,2.82,2.49,3.99,3.97,.39,.5,.83,.97,1.13,1.53,.2,.37,.46,.7,.76,.99,.4,.37,.87,.64,1.35,.9,.54,.29,2.23,.87,2.72,1.24,.25,.19,.4,.42,.48,.72,.16,.6-.01,.89,.18,1.48,.16,.49,.74,.94,1.05,1.35,.41,.54,.55,1.17,.66,1.81,.18,1.03,.18,2.07,.24,3.11,.03,.39,.05,.78,.12,1.17,.08,.49,.04,.82,.51,.78,.51-.04,.15-.37,.17-.9,0-.16,0-.33-.02-.49-.08-.82-.1-1.65-.16-2.47-.07-1.03-.22-2.04-.56-3.03-.08-.23-.17-.46-.32-.65-.34-.42-.56-.89-.72-1.4-.16-.5,.8-.69,.7-1.21-.15-.77-.6-1.32-1.18-1.78-.19-.15-1.54-.61-1.75-.73-.56-.33-1.13-.64-1.7-.96-.41-.23-.75-.53-.94-.98-.06-.14-.15-.26-.24-.38-1.34-1.81-2.8-3.51-4.53-4.97-1.08-.91-2.23-1.72-3.56-2.24-2.37-.93-4.83-1.14-7.35-.84-1.65,.2-3.23,.61-4.75,1.31-2.64,1.22-5.06,2.76-7.12,4.81-.05,.14-.15,.36-.21,.49l-.04,.12Z"/>
        <path class="cls-2" d="M110.59,77.97c.54,2.08,2.06,11.08,2.23,12.28l1.12,.8c.64,0,1.35,0,1.99,.04,.63,.04,1.11,.12,1.4,.32,.14,.1,.14,.07,.17,.2,.02,.12-.07,.41-.19,.62-.25,.43-.76,.8-1.36,1.08-1.21,.55-2.65,.79-4.07,.99-1.43,.18-2.89,.24-4.35,.27-.05,0-.1,.04-.1,.09,0,.06,.03,.11,.09,.12,1.46,.17,2.92,.31,4.41,.34,1.49,.02,2.99-.06,4.52-.57,.75-.26,1.56-.65,2.15-1.43,.28-.39,.5-.79,.58-1.4,.1-.6-.26-1.37-.7-1.71-.88-.7-1.7-.87-2.51-1.02-.49-.08-.97-.11-1.45-.11-.21-1.03-.92-5.04-1.04-5.91-.22-1.54-.45-3.08-.81-4.59-.07-.31-.16-.62-.25-.92-.74-.05-1.46-.24-2.13-.58,.11,.36,.22,.73,.31,1.11Z"/>
        <path class="cls-2" d="M98.79,65.03c-1.02-.02-2.03,.11-3.03,.29-1.59,.28-3.12,.78-4.64,1.31-1.7,.59-3.29,1.37-4.78,2.38-1.42,.96-2.68,2.1-3.82,3.38-1.03,1.15-1.92,2.41-2.78,3.69-.25,.37-.5,.74-.7,1.14-.26,.5-.09,1.09,.37,1.4,.47,.32,.69,.13,1.1-.3,.16-.17,.27-.37,.4-.56,1.26-1.95,2.41-3.82,4.13-5.4,1.3-1.19,2.98-2.32,4.56-3.09,1.25-.61,2.56-1.14,3.88-1.55,1.91-.59,4.15-.99,6.16-.86,.66,.04,1.32,.14,1.96,.32,0,0,.02,0,.02,0,.17-.59,.41-1.15,.72-1.68-1.12-.33-2.3-.5-3.54-.49Z"/>
        <path class="cls-2" d="M58.75,84.28c.2,.31,.6,.44,.97,.27,.16-.07,.31-.17,.46-.26,1-.62,2.02-1.21,3.1-1.69,1.87-.83,3.85-1.19,5.87-1.29,1.86-.09,3.73-.12,5.6-.17,.82-.02,1.65-.03,2.47-.08,.48-.03,.82-.35,.81-.78,0-.41-.33-.74-.79-.78-.16-.01-.32,0-.49,0-1.44,.13-2.89,.07-4.34,.13-1.65,.07-3.3,.07-4.94,.26-1.27,.14-2.5,.43-3.71,.85-1.65,.57-3.15,1.43-4.61,2.36-.08,.05-.16,.1-.23,.16-.31,.27-.38,.69-.16,1.02Z"/>
        <path class="cls-2" d="M103.69,89.39c.08,.48,.36,.72,.71,.67,.36-.05,.56-.39,.5-.88-.13-1.02-.28-2.03-.42-3.05,0,0,0,0,0,0,0-.04-.01-.08-.02-.12-.08-.41-.33-.64-.68-.6-.35,.04-.56,.31-.53,.73,.02,.27,.06,.54,.1,.8,.11,.82,.21,1.63,.34,2.45Z"/>
        <path class="cls-3" d="M126.54,85.41c-2.47,10.81-8.33,20.81-16.5,28.31-8.15,7.54-18.62,12.51-29.61,14.07-10.99,1.59-22.45-.16-32.4-5.1-9.97-4.89-18.4-12.85-23.87-22.52-5.47-9.61-7.95-20.85-6.97-31.92,0-.01,.02-.02,.02-.03,.09-.54,.3-.66,.83-.51,.34,.1,.64,.28,.94,.47,.36,.23,.55,.51,.47,.94-.02,.13,0,.27-.02,.41-.13,1.53-.07,3.06,.04,4.58,.11,1.42,.34,2.82,.63,4.21,.14,.68,.21,1.37,.44,2.02,.48,1.36,1.05,2.67,1.77,3.92,.91,1.57,1.97,3.01,3.35,4.2,1.21,1.04,2.56,1.82,4.07,2.31,1.98,.63,4.02,.97,6.1,1.09,.66,.04,1.17,.27,1.56,.79,.36,.47,.73,.94,1.12,1.39,.52,.59,1.15,.95,1.97,.82,.46-.07,.87-.29,1.26-.53,.87-.54,1.16-1.19,1-2.2-.03-.2-.08-.4-.12-.6-.12-.53-.25-1.05-.38-1.58-.41-1.72-.62-3.46-.53-5.23,.07-1.27,.4-2.45,1.24-3.45,.97-1.15,2.19-1.73,3.71-1.66,.37,.02,.45,.09,.47,.46,.02,.49,.04,.97-.05,1.46-.05,.28-.08,.56-.09,.85-.11,1.88,.27,3.66,1.1,5.35,.62,1.26,1.45,2.38,2.37,3.43,.63,.72,1.3,1.41,2.05,2.02,.71,.57,1.28,1.28,1.76,2.06,.87,1.38,1.21,2.92,1.3,4.52,.05,.97,.12,1.95,.09,2.92-.03,.9,.27,1.71,.78,2.43,1.36,1.9,3.18,3.18,5.41,3.8,2.59,.72,5.25,1.07,7.94,1.16,1.31,.04,2.62,0,3.93-.13,1.89-.18,3.75-.56,5.57-1.08,2.68-.76,5.23-1.85,7.71-3.1,3.08-1.55,5.69-3.7,7.85-6.38,1.89-2.35,3.3-4.95,4.11-7.86,.87-3.14,1.66-6.31,2.02-9.56,.06-.55,.14-1.1,.12-1.66-.03-.73-.77-1.17-1.44-.87-.44,.2-.59,.57-.63,1.01-.13,1.52-.34,3.04-.62,4.54-.37,1.93-.87,3.83-1.38,5.72-.49,1.84-1.24,3.58-2.25,5.2-1.05,1.67-2.29,3.18-3.74,4.53-1.11,1.04-2.32,1.94-3.63,2.73-1.15,.69-2.36,1.26-3.58,1.82-3.4,1.54-6.93,2.63-10.67,2.93-1.53,.12-3.06,.13-4.58,.03-1.66-.1-3.3-.39-4.94-.7-1.51-.29-2.88-.84-4.08-1.8-.58-.46-1.1-.96-1.49-1.59-.23-.38-.36-.78-.36-1.23,0-.53,0-1.06,0-1.58-.02-1.12-.11-2.24-.32-3.35-.45-2.36-1.6-4.33-3.38-5.92-.74-.66-1.47-1.32-2.11-2.08-.98-1.15-1.86-2.37-2.36-3.81-.4-1.15-.6-2.33-.46-3.55,.1-.84,.21-1.68,.11-2.54-.15-1.23-.84-2.06-2.02-2.19-1.03-.11-2.07-.04-3.04,.36-2.24,.92-3.61,2.6-4.25,4.91-.23,.84-.29,1.71-.3,2.58-.01,1.86,.29,3.69,.74,5.5,.11,.46,.22,.92,.33,1.38,.04,.17,0,.28-.16,.37-.27,.15-.36,.15-.56-.1-.38-.46-.74-.94-1.12-1.39-.66-.79-1.48-1.29-2.54-1.35-1.71-.1-3.39-.34-5.05-.75-2.05-.51-3.78-1.53-5.19-3.09-.72-.79-7.46-9.27-2.93-17.75l.98-2.9s0-.04,.04-.12l.15-.43s.04-.04,.07-.06c.03-.09,.04-.16,0-.15-.04-.15-.3,.02-.26-.1,.05-.17,0-.15-.08-.3-.35-.79-.67-1.6-1.07-2.37-.18-.34-.4-.64-.68-.9-.58-.53-1.28-.59-1.93-.15-.38,.26-.7,.6-.94,1-.31,.5-.5,1.05-.68,1.6-.17,.54-.34,1.08-.56,1.61-.16,.4-.41,.61-.87,.66-.8,.08-1.41,.52-1.79,1.24-.12,.22-.2,.46-.26,.7-.05,.11-.09,.22-.1,.34v.06c-1.07,11.43,1.49,23.24,7.19,33.26,5.66,10.04,14.4,18.32,24.76,23.41,10.34,5.14,22.25,6.98,33.66,5.34,11.43-1.6,22.33-6.76,30.81-14.59,8.51-7.79,14.62-18.19,17.21-29.45,1.13-4.88,1.62-9.91,1.46-14.92l-2.28,.9c.08,4.54-.38,9.09-1.4,13.51ZM19.79,65.93c.36-.72,.55-1.5,.81-2.25,.1-.29,.21-.59,.37-.86,.13-.22,.23-.23,.35-.02,.27,.49,.48,1,.69,1.51,.05,.12,.05,.24,0,.36-.27,.85-.54,1.7-.81,2.56,0,.02-.04,.04-.09,.08-.4-.38-.79-.73-1.24-1.01-.16-.1-.17-.22-.09-.38Z"/>
        <path class="cls-3" d="M105.13,25.15c-9.51-6.57-21.06-10.12-32.61-10.11h0c-.66,0-1.2,.54-1.19,1.2,0,.66,.54,1.2,1.2,1.19,11.09-.03,22.15,3.36,31.28,9.65,9.15,6.25,16.37,15.3,20.39,25.63l2.15-.85c-4.17-10.77-11.68-20.2-21.21-26.73Z"/>
        <path class="cls-3" d="M24.15,65.2c.06-.14,.16-.35,.21-.49-.02,.02-.04,.04-.07,.06l-.15,.43Z"/>
        <polygon class="cls-3" points="24.11 65.32 23.13 68.22 24.11 65.32 24.11 65.32"/>
        <circle class="cls-2" cx="25.48" cy="46.9" r="3.52"/>
        <path class="cls-2" d="M56.52,22.99c1.94,0,3.52-1.57,3.52-3.52s-1.57-3.52-3.52-3.52-3.52,1.57-3.52,3.52,1.57,3.52,3.52,3.52Z"/>
        <circle class="cls-2" cx="37.1" cy="30.79" r="3.52"/>
        <path class="cls-2" d="M106.21,67.54s-.02-.02-.03-.02c-.49-.39-1-.72-1.53-1.01-.36,.54-.6,1.14-.73,1.78,.63,.4,1.23,.86,1.79,1.35-.11-.74,.07-1.49,.49-2.09Z"/>
        <path class="cls-2" d="M173.2,52.89l-6.24-15.83c-.24-.61-.93-.91-1.55-.67l-3.06,1.2c-.61,.24-.91,.93-.67,1.55l2.17,5.51-4.03,1.59-2.17-5.51c-.24-.61-.93-.91-1.55-.67l-3.06,1.2c-.61,.24-.91,.93-.67,1.55l.51,1.31-11.79,4.64-5.23,2.06-8.69,3.42-2.15,.85-16.35,6.44c-1.35,.53-2.07,1.88-1.93,3.25-.89,.37-1.59,.99-2.1,1.73,.52,.29,1.03,.63,1.53,1.01,0,0,.02,.02,.03,.02,.27-.39,.63-.73,1.07-.95l1.31,3.33,.82,2.07c-.5,.15-1.01,.14-1.49,.03-.89-.22-1.67-.84-2.03-1.76-.08-.21-.13-.42-.16-.63-.56-.49-1.16-.95-1.79-1.35-.13,.69-.13,1.4,.05,2.11l-12.54,4.94,3.78-.29s9.18-3.58,9.18-3.58c.93,1.72,2.8,2.67,4.7,2.47,.39-.04,.78-.11,1.16-.25,.32,.42,.73,.75,1.19,.97,.74,.35,1.61,.42,2.44,.09l13.94-5.49,2.24-.88,8.98-3.54,5.4-2.13,13.65-5.38,.51,1.31c.24,.61,.93,.91,1.55,.67l3.06-1.2c.61-.24,.91-.93,.67-1.55l-2.17-5.51,4.03-1.59,2.17,5.51c.24,.61,.93,.91,1.55,.67l3.06-1.2c.61-.24,.91-.93,.67-1.55Zm-29.02,7.9l-5.36,2.11-8.91,3.51-2.22,.88-14.47,5.7c-.64,.25-1.36-.06-1.64-.68,0,0,0-.01,0-.02l-2.91-7.39s-.01,0-.01-.01c-.23-.65,.09-1.36,.73-1.62l4.52-1.78,2.05,5.2c.19,.49,.75,.73,1.24,.54,.49-.19,.73-.75,.54-1.24l-2.05-5.2,4.88-1.92,1.36,3.45c.19,.49,.75,.73,1.24,.54,.49-.19,.73-.75,.54-1.24l-1.36-3.45,3.29-1.3,1.59-.63,1.78,4.52,.27,.68c.19,.49,.75,.73,1.24,.54s.73-.75,.54-1.24l-2.05-5.2,4.88-1.92,1.36,3.45c.19,.49,.75,.73,1.24,.54,.49-.19,.73-.75,.54-1.24l-1.36-3.45,.85-.33,4.03-1.59,2.05,5.2c.14,.36,.47,.58,.83,.6,.13,0,.27,0,.4-.06,.49-.19,.73-.75,.54-1.24l-2.05-5.2,4.88-1.92,1.36,3.45c.19,.49,.75,.73,1.24,.54,.49-.19,.73-.75,.54-1.24l-1.36-3.45,4.64-1.83,3.83,9.73-13.24,5.22Zm17.68-4.21l-1.73,.68-.44-1.12s.02-.07,0-.11l-4.75-12.07s-.06-.05-.08-.08l-.44-1.12,1.73-.68,5.71,14.5Zm-.71-7l-.75-1.89,4.03-1.59,.75,1.89-4.03,1.59Zm8.28,4.02l-5.71-14.5,1.73-.68,5.71,14.5-1.73,.68Z"/>
      </g>
    </g>
  </g>
</svg>